<?xml version="1.0" encoding="UTF-8"?>
<svg id="Calque_2" data-name="Calque 2" xmlns="http://www.w3.org/2000/svg" viewBox="0 0 779.35 175">
  <defs>
    <style>
      .cls-1 {
        fill: #349937;
      }

      .cls-2 {
        fill: #e3b23c;
      }
    </style>
  </defs>
  <g id="Calque_1-2" data-name="Calque 1">
    <g>
      <path class="cls-2" d="M170.77,33.19c.23,6.74-4.72,12.14-12.59,12.14-6.97,0-11.91-5.39-11.91-12.14s5.17-12.36,12.36-12.36,12.14,5.39,12.14,12.36ZM148.74,172.53V63.76h19.78v108.77h-19.78Z"/>
      <path class="cls-2" d="M299.76,117.24c0,40.23-27.87,57.76-54.16,57.76-29.44,0-52.14-21.57-52.14-55.96,0-36.41,23.82-57.76,53.94-57.76s52.36,22.7,52.36,55.96ZM213.46,118.37c0,23.82,13.71,41.8,33.04,41.8s33.04-17.75,33.04-42.25c0-18.43-9.21-41.8-32.59-41.8s-33.49,21.57-33.49,42.25Z"/>
      <path class="cls-2" d="M431.23,167.59c-7.19,3.6-21.57,7.19-40,7.19-42.7,0-74.84-26.97-74.84-76.64s32.14-79.56,79.11-79.56c18.88,0,30.79,4.05,35.96,6.74l-4.72,15.96c-7.42-3.6-17.98-6.29-30.57-6.29-35.51,0-59.11,22.7-59.11,62.48,0,37.08,21.35,60.91,58.21,60.91,11.91,0,24.05-2.47,31.91-6.29l4.05,15.51Z"/>
      <path class="cls-2" d="M454.38,97.69c0-12.81-.23-23.82-.9-33.93h17.3l.67,21.35h.9c4.94-14.61,16.86-23.82,30.11-23.82,2.25,0,3.82.23,5.62.67v18.65c-2.02-.45-4.05-.67-6.74-.67-13.93,0-23.82,10.56-26.52,25.4-.45,2.7-.9,5.84-.9,9.21v57.98h-19.55v-74.84Z"/>
      <path class="cls-2" d="M536.63,121.74c.45,26.74,17.53,37.76,37.31,37.76,14.16,0,22.7-2.47,30.11-5.62l3.37,14.16c-6.97,3.15-18.88,6.74-36.18,6.74-33.49,0-53.49-22.03-53.49-54.84s19.33-58.66,51.02-58.66c35.51,0,44.95,31.24,44.95,51.24,0,4.05-.45,7.19-.67,9.21h-76.41ZM594.62,107.58c.22-12.58-5.17-32.14-27.42-32.14-20,0-28.77,18.43-30.34,32.14h57.76Z"/>
      <path class="cls-2" d="M635.52,152.3c5.84,3.82,16.18,7.87,26.07,7.87,14.38,0,21.12-7.19,21.12-16.18,0-9.44-5.62-14.61-20.23-20-19.55-6.97-28.77-17.75-28.77-30.79,0-17.53,14.16-31.91,37.53-31.91,11.01,0,20.68,3.15,26.74,6.74l-4.94,14.38c-4.27-2.7-12.14-6.29-22.25-6.29-11.69,0-18.2,6.74-18.2,14.83,0,8.99,6.52,13.03,20.68,18.43,18.88,7.19,28.54,16.63,28.54,32.81,0,19.1-14.83,32.59-40.68,32.59-11.91,0-22.92-2.92-30.56-7.42l4.94-15.06Z"/>
      <path class="cls-2" d="M751.03,32.52v31.24h28.32v15.06h-28.32v58.66c0,13.48,3.82,21.13,14.83,21.13,5.17,0,8.99-.67,11.46-1.35l.9,14.83c-3.82,1.57-9.89,2.7-17.53,2.7-9.21,0-16.63-2.92-21.35-8.32-5.62-5.84-7.64-15.51-7.64-28.32v-59.33h-16.86v-15.06h16.86v-26.07l19.33-5.17Z"/>
    </g>
    <g>
      <g>
        <path class="cls-1" d="M86.96,20.06c-.62.52-2.44-.51-2.85,1.37-.29,1.32.93,2.31,1.03,3.6.4.11.35,0,.54-.17,2.25-1.95,5.06-4.67,8.31-4.48,1.03.06,1.63.41,1.77,1.51.38,2.92-.12,6.6-1.36,9.27,1.81,1.16,4.13.06,5.04-1.75.12-.55-.91-1.34-.99-2.34-.18-2.47,2.56-4.58,3.93-6.42,2.82-3.78,5.45-7.81,8.52-11.35.69-.37,2.52.61,2.41,1.33l-11.58,16.72.54.4c-.86-.13-.43.79-.67,1.37-1.13,2.71-4.52,8.29-6.82,10.05-4.02,3.09-10.02,2.69-14.26,5.87-.88.66-1.92,2.28-2.93,2.51-1.59.36-3.21-.48-4.16-1.71-.45-.58-.55-1.4-1.09-1.77.51,2.63,1.79,5.16,1.63,7.89,2.4-2.39,5.41-4.42,8.86-4.87.89-.12,1.85.1,2.69-.03,2.5-.38,4.97-1.06,7.49-1.08.76.77-3.46,6.48-4.21,7.35-3.84,4.42-8.08,6.68-14.08,5.64-1.15-.2-4.11-.66-5.03-.96-3.23-1.04-5.74-5.4-6.06-8.63-.43-4.35,1.15-7.12,3.19-10.67.38-.65.68-.31,1.26-.03l3.43,4.04c-.18-1.45-.92-2.78-1.05-4.25-.38-4.18,1.97-7.77,3.91-11.25,2.94,2.22,3.43,6.05,5.57,8.7-.1-1.77-1.79-4.32-1.89-5.88-.45-6.84,7.13-12.68,11.14-17.66,2.93-3.64,5.4-7.64,8.45-11.16.67-.32,2.18,1.12,2.18,1.65-2.75,3.66-5.26,7.61-8.06,11.26-1.16,1.51-3.51,4.86-4.81,5.94ZM92.76,24.21c-2.03.05-5.67,3.13-5.97,5.05-.2,1.32-.11,3.09-.29,4.47,4.21-2.14,6.65-4.41,6.25-9.52ZM82.28,25.31c-2.14,2.96-2.73,7.99.54,10.33,1.78-3.14.68-7.18-.54-10.33ZM75.35,32.92c-.44-.45-1.21,1.35-1.29,1.57-1.1,2.97-.91,7.42,1.82,9.46,1.1.82,1.47.06,1.63-1.12.56-4.02-.94-6.35-2.16-9.91ZM94.93,34.01c-3.45-.14-5.86,2.48-8.64,3.73-3.27,1.47-3.9.78-6.32-1.56.85,1.97.31,3.94.82,5.98,1.91-1.26,4.06-2.61,6.19-3.46,2.8-1.12,7.01-1.27,7.95-4.7ZM68.41,43.26c-2.59,3.39-2.16,9.07,1.63,11.42,1.76-3.64.3-8.11-1.63-11.42ZM86.23,50.6c-3.89-.11-9.15.58-10.88,4.62,2.8,1.05,7.34-.75,9.39-2.72.66-.63.69-1.36,1.5-1.9Z"/>
        <path class="cls-1" d="M110.35,77.44c-.93,1.1-2.45,2.33-3.44,3.5l-5.72,4.62c10.74,6.07,18.74,14.17,22.59,26.11,9.83,30.52-14.71,61.03-45.57,62.73-14.38.79-29.14.16-43.53-.02l-26.42-.24-.13-83.95.56-5.29c.36-.46,1.02.98,1.13,1.18,2.1,3.6,1.9,3.35,1.85,7.38-.06,5.36,0,10.74.02,16.05.1,20.34.44,40.71.26,61.09h2.18s.26-12.12.26-12.12c-.13-7.34,1.26-13.28,2.88-20.25.97-4.18.98-6.57,2.89-10.72,5.27-11.47,11.76-17.65,19.54-26.98,6.5-7.8,10.2-15.82,15.29-24.42,1.5-2.53,3.35-4.89,4.72-7.51.12-.53-2.53-3.34-3.01-4.38-2.64-5.77.25-11.27,2.86-16.32.36-.05.62.15.91.31,1.23.71,3.9,5.22,4.49,6.66.94,2.29,1.55,4.97,1.67,7.44,3.23-2.44,6.64-2.43,10.48-2.46.71,0,1.39.31,2.17.31,1.42,0,3.01-.79,4.43.04.24.32.28.56.13.94-.39,1.02-2.66,4.05-3.47,4.98-3.5,4.04-9.42,7.08-14.84,5.59-1.15-.32-1.89-1.12-2.97-1.22-.07.31-.14.63-.33.89-5.97,8.52-9.76,18.28-16.17,26.55-3.29,4.25-7.4,8.12-10.86,12.26-5.62,6.72-11.42,13.95-12.92,22.86,2.46-1.3,2.88-3.59,4.24-5.69,8.82-13.66,22.8-21.92,29.81-37.38,1.35-2.98,2.86-9.77,4.86-11.46.29-.24.88-.3,1.02-.49.35-.48-.49-1.16,1.4-.45-1.62,8.87-4.94,16.88-10.21,24.17-4.72,6.51-10.93,11.57-16.3,17.43-4.87,5.31-8.61,10.39-12.43,16.41-2.69,4.25-4.23,5.35-5.31,10.74-1.54,7.68-1.25,16.17-1.44,24h3c.08-9.46-.83-20.12,3.76-28.75,10.22-19.21,32.14-28.69,39.02-50.21.5-1.57,1.06-5.44,1.81-6.55.18-.26,1.5-.73,1.8-.71,1.93.08.67,4.37.37,5.54-5.08,20.33-19.18,27.22-31.53,41.92-5.55,6.61-11.06,13.83-10.62,22.98,2.99-.52,6.08-.19,9.12-.26,12.06-.28,24.37.62,36.45,0,22-1.13,40.02-19.81,30.01-42-.62-1.37-5.94-10.49-5.4-11.05.6.09,1.3.71,1.76,1.09,15.16,12.59,12.38,35.9-2.6,47.44-10.98,8.45-22.07,8.32-35.2,8.31-10.17-.01-21.53.46-31.58-.25-.97-.07-1.9-.38-2.85-.55l-.16,5.19c.46.65,2.72,0,3.54-.03,14.45-.42,29.48.76,43.82.02,5.69-.29,12.5-1.78,17.72-4.04,24.22-10.49,30.92-42.77,9.04-59.46-4.06-3.1-13.55-8.71-18.61-8.62-.74.01-2.11.17-2.58.83,2.34.26,4.61,1.56,6.61,2.77,7.7,4.66,10.16,8.07,12.62,16.76,4.74,16.68-2.38,32.87-19.45,37.8-10.42,3.01-22.89,1.38-33.64,1.15-3.8-.08-8.65.44-12.26.02-3.52-.41-1.25-3.77,1.91-4.08,7.05-.7,15.94.35,23.12.54,9.78.25,17.58,1.25,26.53-3.66,3.97-2.18,9.2-7.82,10.35-12.25.32-1.24.7-3.32.99-4.7,1.47-7.07-1.06-17.14-5.77-22.64-3.75-4.39-9.14-6.53-12.44-11.09l-5.11-.33c.11-.7-.24-1.37-.27-2.04-.03-.52-.2-2.12.4-2.23.14-.03.49.19.79.16,7.56-.83,12.63-.64,19.49,2.88,20.36,10.45,31.34,30.9,20.27,52.92-15.57,30.98-56.23,21.74-84.35,22.86l-2.57-.55-.24,4.86c1.58.83,3.49,0,5,.02,15.56.18,33.02,1.28,48.42.02,29.17-2.38,51.49-30.33,40.95-59.17-3.23-8.83-11.72-18.64-20.61-22.1-3.65-1.42-7.16-.68-10.4-2.92,1.23-1.29,2.98-1.17,4.55-1.7,16.87-5.67,25.48-22.3,18.77-39.31-1.81-4.57-4.93-7.92-7.78-11.82l1.6-3.07c.56-.39,1.79,1.08,2.17,1.48,11.71,12.2,13.8,32.52,2.62,45.75ZM61.2,53.32c-.54-.49-2.22,3.41-2.32,3.8-.42,1.59,0,2.9.56,4.36.28.72,2.12,4.51,3.12,3.81,1.82-4.31.48-8.01-1.36-11.97ZM78.07,63.11h-6.12c-.5,0-2.57,1.13-3.1,1.52s-2.31,2.13-2.47,2.7c-.12.64.29.32.67.41,4.56,1.02,8.21-1.29,11.03-4.63Z"/>
        <path class="cls-1" d="M47.25,67.11c-1.08.94-2.28-1.15-2.86-2.01-7.35-10.8-4.09-22.82-9.33-33.65-3.25-6.71-12-13.06-19.37-8.56-1.76,1.08-4.17,4.31-3.3,6.47.58,1.43,3.55,3.99,4.59,5.47,2.71,3.84,3.24,8.54-.8,11.67-5.13,3.98-10.99-1.27-10.74-6.92.1-2.31,1.49-4.25,2.05-6.42-.25-.53-5.99-2.43-7.02-3.04-.25-.15-.54-.21-.44-.58.14-1.59,6.65-5.33,8.29-5.89.07-1.23-.6-2.33-.71-3.67-.4-4.88,2.77-10.81,8.29-10.2.49.05.99.55,1.33.49.17-.03,1.86-1.66,2.38-1.98,3.5-2.16,6.3-1.25,8.6,1.98,5.03-1.9,10.04,1.14,8.1,6.83-.91,2.68-2.5,2.5-3.82,4.07-1.06,1.26,1.27,2.1,2.2,3,8.97,8.73,5.89,22.86,10.06,33.46.83,2.11,4.66,7.57,2.5,9.44ZM11.69,21.49l2.71-2.04c3.43-2.05,6.53-2.09,10.41-1.42,1.63.28,3.2,1.23,4.84.9,1.76-.36,4.33-2.86,2.68-4.62s-4.43.08-6.32.35c-1.09-.27-1.17-3.36-3.04-3.52-2.32-.2-3.58,2.33-5.23,3.52-2.49-.86-2.97-2.2-5.26.16-1.96,2.01-1.82,4.24-.8,6.68ZM8.9,27.27c-.34.07-2.9.97-2.11,1.44.32.19,3.55.8,4.08.84,1.42.09.54-1.66-.11-2.08-.59-.39-1.2-.31-1.86-.19ZM10.91,34.58c-.76,1.58-2.08,3.58-1.83,5.41.2,1.47,1.22,3.46,2.81,3.74,2.79.48,3.79-1.59,3.27-4.09-.22-1.06-3.18-5.69-4.26-5.06Z"/>
        <path class="cls-1" d="M68.31,82.12l-.19-3.25.33-.22c6.06-1,12.94.52,18.88-.71,14.08-2.91,21.41-16.92,16.17-30.34-1.06-2.71-2.62-4.74-4.72-6.71l1.58-2.97c.8-.51,3.48,3.02,3.93,3.71,9.13,13.93,3.92,31.79-11.35,38.38-7.85,3.39-16.3,2.49-24.63,2.09Z"/>
        <path class="cls-1" d="M16.22,133.2c-.08.15-.76.55-.85.91-.97.26-.71-2.99-.69-3.68.77-21.15,21.69-34.64,30.8-51.9,1.33-2.52,3.73-10.02,5.84-11.3.44-.27,1.19-.6,1.72-.47,1.29.65.25,2.66-.14,3.68-1.42,3.72-4.02,8.43-6.11,11.85-9.5,15.56-24.08,26.26-29.04,44.41-.51,1.87-.66,4.92-1.54,6.49Z"/>
        <path class="cls-1" d="M20.56,45.31c.16-.14-.03-.53.37-.42.47,2.5-1.54,3.86-2.68,5.89-5.87,10.47-5.93,22.83-1.18,33.74,2,4.6,5.14,8.58,8.1,12.59l-1.97,2.44c-.92.15-5.25-5.77-5.92-6.8-7.32-11.27-9.7-26.26-4.37-38.87,1.87-4.41,4.25-5.54,7.64-8.56Z"/>
        <path class="cls-1" d="M29.95,35.95c1.09-.68,2.11,1.69,2.07,2.51-.06,1.13-1.83,3.4-2.31,4.73-1.59,4.39-2,14.5-1.69,19.25.32,5.02,2.54,12.23,5.32,16.44.53.8,2.97,3.35,3.08,3.75.13.48-1.49,2.5-2.03,2.55-.91.08-2.5-2.16-3.07-2.92-7.56-10.09-8.13-25.18-5.36-37.1.74-3.16,2.96-6.09,3.99-9.2Z"/>
        <path class="cls-1" d="M78.61,18.5l-2.08,3.27-38.45-.83,2.06-3.76c.54.11,1.03.24,1.6.24,9.65,0,20.14-.56,29.68-.03.85.05,6.98.81,7.2,1.1Z"/>
        <path class="cls-1" d="M22.3,50.33c.79.68-.9,7.23-1.05,8.6s-.29,3.51-.32,4.85c-.2,9.69,3.5,18.85,10.07,25.86l-2.34,2.55c-1.28.22-5.52-6.82-6.22-8.13-4-7.46-6.15-16.32-4.62-24.76.26-1.41,1.15-5.63,1.72-6.72.27-.53,2.24-2.72,2.77-2.26Z"/>
        <path class="cls-1" d="M42.42,75.61l-2.61,2.45c-1.8.31-6.21-10.42-6.76-12.22-1.82-5.96-2.57-14.93-1.15-21.01.23-1.01.64-2.92,1.99-1.87,1.15.89.56,8.17.64,9.96.22,4.53,1.21,9.83,2.8,14.07,1.14,3.02,2.72,6.02,5.09,8.24v.38Z"/>
        <path class="cls-1" d="M71.81,26.12c-.89.89-1.65,3.45-2.85,3.56-.71.06-1.44-.29-2.17-.31-8.13-.26-16.31.21-24.44.02l-2.1-3.4,12.67-.42,18.89.56Z"/>
        <path class="cls-1" d="M108.19.04c.87-.24,1.72.7,1.98,1.45-3.87,6.26-8.37,12.3-12.96,18.06-.22.06-.37-.09-.55-.16-.54-.21-2.13-1.21-1.51-1.89C97.18,15.37,106.56.49,108.19.04Z"/>
      </g>
      <path class="cls-1" d="M18.59,30.1c-2.31-2.31,1.51-6,3.56-3.42,1.57,1.98-1.27,5.72-3.56,3.42Z"/>
    </g>
  </g>
</svg>
