<?xml version="1.0" encoding="UTF-8"?>
<svg id="Calque_2" data-name="Calque 2" xmlns="http://www.w3.org/2000/svg" viewBox="0 0 157.69 218.78">
  <defs>
    <style>
      .cls-1 {
        fill: #349937;
      }
    </style>
  </defs>
  <g id="Calque_1-2" data-name="Calque 1">
    <g>
      <g>
        <path class="cls-1" d="M108.86,25.11c-.78.65-3.05-.64-3.57,1.72-.36,1.65,1.16,2.89,1.29,4.51.51.13.43,0,.68-.21,2.82-2.44,6.33-5.85,10.4-5.61,1.29.08,2.04.51,2.22,1.89.47,3.65-.16,8.26-1.71,11.6,2.26,1.45,5.17.07,6.31-2.19.15-.68-1.14-1.68-1.23-2.93-.22-3.09,3.21-5.73,4.92-8.03,3.53-4.73,6.82-9.77,10.67-14.21.87-.46,3.16.76,3.02,1.66l-14.5,20.93.67.5c-1.07-.17-.53,1-.84,1.71-1.42,3.4-5.65,10.37-8.53,12.58-5.04,3.87-12.55,3.37-17.85,7.35-1.1.83-2.41,2.86-3.67,3.14-1.99.45-4.02-.6-5.2-2.15-.56-.73-.69-1.76-1.36-2.21.63,3.29,2.24,6.46,2.04,9.87,3.01-2.99,6.77-5.53,11.09-6.1,1.11-.15,2.32.13,3.37-.03,3.12-.47,6.22-1.32,9.37-1.36.95.96-4.33,8.11-5.27,9.2-4.81,5.53-10.11,8.36-17.62,7.06-1.45-.25-5.14-.83-6.29-1.2-4.04-1.31-7.18-6.76-7.58-10.81-.54-5.44,1.44-8.91,3.99-13.36.47-.82.85-.39,1.58-.04l4.3,5.06c-.23-1.82-1.15-3.48-1.32-5.32-.48-5.23,2.46-9.73,4.89-14.08,3.68,2.78,4.29,7.57,6.98,10.89-.12-2.22-2.24-5.4-2.37-7.36-.57-8.57,8.92-15.87,13.94-22.1,3.67-4.55,6.76-9.57,10.58-13.97.84-.39,2.73,1.4,2.73,2.06-3.44,4.58-6.58,9.53-10.09,14.1-1.45,1.89-4.39,6.08-6.02,7.43ZM116.11,30.31c-2.54.06-7.1,3.92-7.47,6.32-.25,1.65-.13,3.87-.36,5.6,5.27-2.68,8.33-5.52,7.83-11.92ZM103,31.68c-2.68,3.71-3.42,10,.68,12.93,2.22-3.92.85-8.99-.68-12.93ZM94.31,41.2c-.55-.56-1.52,1.69-1.61,1.96-1.37,3.71-1.14,9.29,2.28,11.85,1.37,1.02,1.84.08,2.04-1.4.7-5.03-1.18-7.94-2.71-12.41ZM118.83,42.57c-4.32-.17-7.34,3.1-10.82,4.67-4.09,1.84-4.88.98-7.91-1.95,1.06,2.47.39,4.94,1.02,7.49,2.39-1.58,5.08-3.27,7.75-4.33,3.5-1.4,8.78-1.59,9.95-5.88ZM85.63,54.15c-3.24,4.25-2.71,11.36,2.04,14.29,2.2-4.55.38-10.15-2.04-14.29ZM107.94,63.34c-4.87-.14-11.46.73-13.62,5.78,3.5,1.31,9.19-.94,11.75-3.4.82-.79.87-1.7,1.87-2.38Z"/>
        <path class="cls-1" d="M138.12,96.93c-1.17,1.38-3.07,2.91-4.3,4.38l-7.15,5.78c13.44,7.59,23.46,17.73,28.27,32.68,12.31,38.21-18.41,76.39-57.04,78.52-18,.99-36.47.2-54.48-.03l-33.07-.3-.16-105.09.7-6.62c.45-.57,1.27,1.23,1.41,1.48,2.63,4.51,2.37,4.2,2.32,9.24-.08,6.71,0,13.45.03,20.09.13,25.46.55,50.96.32,76.46h2.73s.32-15.17.32-15.17c-.16-9.19,1.58-16.63,3.6-25.34,1.22-5.23,1.23-8.22,3.61-13.41,6.6-14.35,14.73-22.1,24.46-33.77,8.14-9.76,12.77-19.8,19.14-30.57,1.88-3.17,4.19-6.12,5.91-9.4.15-.67-3.17-4.18-3.76-5.48-3.3-7.22.31-14.11,3.58-20.43.44-.06.78.19,1.13.39,1.53.89,4.88,6.54,5.62,8.34,1.17,2.87,1.94,6.22,2.1,9.32,4.04-3.05,8.31-3.04,13.12-3.08.88,0,1.74.39,2.71.39,1.78,0,3.77-.99,5.54.05.3.4.35.7.17,1.17-.49,1.27-3.33,5.08-4.34,6.24-4.38,5.06-11.79,8.86-18.58,6.99-1.44-.4-2.37-1.41-3.72-1.53-.08.38-.18.78-.41,1.11-7.47,10.67-12.21,22.89-20.24,33.24-4.12,5.31-9.26,10.16-13.6,15.35-7.04,8.41-14.29,17.47-16.17,28.61,3.08-1.63,3.61-4.5,5.3-7.12,11.04-17.09,28.54-27.43,37.32-46.79,1.69-3.73,3.58-12.23,6.09-14.35.36-.31,1.1-.37,1.28-.62.43-.61-.61-1.46,1.76-.57-2.03,11.1-6.18,21.13-12.79,30.25-5.9,8.15-13.68,14.48-20.41,21.82-6.09,6.64-10.78,13-15.55,20.54-3.37,5.32-5.3,6.7-6.64,13.45-1.92,9.61-1.57,20.24-1.81,30.04h3.75c.1-11.84-1.04-25.19,4.71-35.98,12.79-24.04,40.24-35.91,48.84-62.85.63-1.96,1.33-6.81,2.27-8.2.22-.33,1.88-.91,2.26-.89,2.41.1.84,5.47.47,6.94-6.35,25.45-24,34.07-39.47,52.48-6.95,8.27-13.85,17.31-13.29,28.76,3.75-.66,7.62-.24,11.42-.32,15.09-.35,30.5.78,45.63,0,27.54-1.42,50.1-24.8,37.57-52.58-.77-1.72-7.44-13.13-6.76-13.84.75.11,1.62.89,2.2,1.37,18.97,15.76,15.5,44.94-3.25,59.38-13.74,10.58-27.62,10.42-44.06,10.4-12.73-.01-26.95.58-39.53-.31-1.22-.09-2.37-.47-3.56-.69l-.19,6.49c.57.81,3.41,0,4.43-.04,18.08-.52,36.9.96,54.85.03,7.13-.37,15.64-2.23,22.18-5.06,30.32-13.13,38.71-53.53,11.31-74.43-5.09-3.88-16.96-10.9-23.29-10.79-.93.02-2.64.21-3.23,1.04,2.92.33,5.78,1.96,8.28,3.47,9.64,5.84,12.71,10.11,15.8,20.97,5.93,20.87-2.98,41.14-24.35,47.31-13.04,3.76-28.65,1.73-42.11,1.44-4.76-.1-10.82.55-15.35.02-4.41-.51-1.57-4.72,2.4-5.11,8.83-.88,19.95.44,28.94.67,12.24.32,22,1.56,33.2-4.59,4.97-2.73,11.51-9.78,12.96-15.33.41-1.55.88-4.15,1.24-5.88,1.84-8.85-1.33-21.45-7.23-28.35-4.7-5.49-11.44-8.17-15.57-13.88l-6.4-.42c.14-.88-.29-1.72-.34-2.55-.03-.65-.26-2.65.5-2.79.18-.03.62.24.98.2,9.46-1.04,15.81-.8,24.4,3.61,25.49,13.08,39.23,38.67,25.37,66.24-19.49,38.78-70.39,27.21-105.58,28.61l-3.22-.69-.3,6.08c1.98,1.04,4.37,0,6.25.02,19.48.23,41.33,1.6,60.61.03,36.51-2.98,64.45-37.97,51.26-74.07-4.04-11.06-14.68-23.34-25.8-27.67-4.57-1.78-8.96-.85-13.02-3.66,1.55-1.62,3.73-1.46,5.7-2.12,21.11-7.1,31.9-27.91,23.49-49.21-2.26-5.72-6.17-9.92-9.73-14.79l2.01-3.84c.7-.48,2.24,1.35,2.72,1.85,14.65,15.28,17.27,40.7,3.28,57.27ZM76.61,66.74c-.68-.62-2.77,4.27-2.9,4.76-.52,1.99,0,3.64.7,5.45.35.91,2.65,5.64,3.9,4.77,2.28-5.39.6-10.03-1.7-14.98ZM97.72,79h-7.66c-.63,0-3.22,1.41-3.89,1.9s-2.89,2.67-3.09,3.38c-.15.81.37.41.83.51,5.71,1.28,10.28-1.61,13.8-5.8Z"/>
        <path class="cls-1" d="M59.14,84c-1.36,1.18-2.85-1.44-3.58-2.51-9.2-13.52-5.13-28.57-11.68-42.12-4.07-8.4-15.02-16.35-24.25-10.71-2.2,1.35-5.22,5.39-4.13,8.1.72,1.78,4.44,5,5.75,6.85,3.39,4.81,4.05,10.69-1,14.61-6.43,4.99-13.76-1.59-13.45-8.66.13-2.89,1.86-5.32,2.57-8.03-.31-.66-7.49-3.04-8.79-3.8-.31-.18-.67-.26-.55-.73.18-2,8.32-6.67,10.37-7.37.09-1.54-.75-2.91-.89-4.59-.49-6.11,3.47-13.53,10.38-12.76.61.07,1.24.69,1.67.61.21-.04,2.33-2.07,2.97-2.47,4.38-2.71,7.88-1.56,10.76,2.48,6.29-2.38,12.56,1.43,10.14,8.55-1.14,3.35-3.13,3.13-4.78,5.09-1.33,1.58,1.59,2.62,2.76,3.76,11.23,10.93,7.37,28.62,12.59,41.89,1.04,2.64,5.83,9.47,3.13,11.81ZM14.64,26.9l3.4-2.56c4.29-2.56,8.18-2.61,13.03-1.78,2.05.35,4.01,1.54,6.06,1.13,2.2-.45,5.42-3.58,3.36-5.78-2.06-2.2-5.54.1-7.91.44-1.36-.34-1.47-4.21-3.81-4.41-2.91-.25-4.49,2.91-6.55,4.41-3.12-1.08-3.72-2.75-6.58.2-2.45,2.52-2.28,5.3-1,8.36ZM11.14,34.13c-.43.08-3.63,1.21-2.64,1.8.4.24,4.45,1.01,5.11,1.05,1.77.11.67-2.08-.14-2.61-.74-.48-1.5-.39-2.33-.24ZM13.65,43.29c-.96,1.98-2.6,4.48-2.29,6.77.25,1.84,1.53,4.34,3.52,4.68,3.5.61,4.75-2,4.1-5.12-.27-1.32-3.99-7.12-5.33-6.33Z"/>
        <path class="cls-1" d="M85.51,102.79l-.24-4.06.41-.27c7.59-1.25,16.2.65,23.63-.89,17.63-3.65,26.8-21.18,20.25-37.97-1.32-3.39-3.29-5.93-5.9-8.4l1.98-3.72c1-.64,4.35,3.78,4.92,4.65,11.42,17.43,4.9,39.79-14.21,48.05-9.82,4.24-20.4,3.12-30.83,2.62Z"/>
        <path class="cls-1" d="M20.3,166.74c-.1.19-.95.69-1.07,1.14-1.21.33-.89-3.74-.86-4.61.96-26.47,27.16-43.37,38.55-64.97,1.66-3.15,4.67-12.54,7.31-14.14.55-.33,1.49-.75,2.16-.58,1.61.82.32,3.33-.17,4.61-1.77,4.65-5.03,10.55-7.65,14.83-11.89,19.48-30.14,32.87-36.35,55.59-.64,2.34-.83,6.16-1.92,8.13Z"/>
        <path class="cls-1" d="M25.74,56.72c.2-.18-.04-.66.47-.53.59,3.13-1.93,4.83-3.35,7.37-7.35,13.1-7.42,28.57-1.47,42.23,2.51,5.76,6.43,10.75,10.14,15.76l-2.47,3.06c-1.15.19-6.58-7.23-7.41-8.52-9.17-14.11-12.14-32.87-5.47-48.65,2.34-5.52,5.32-6.94,9.56-10.72Z"/>
        <path class="cls-1" d="M37.49,44.99c1.36-.85,2.64,2.12,2.59,3.14-.07,1.42-2.29,4.25-2.89,5.92-1.99,5.49-2.5,18.14-2.12,24.1.4,6.29,3.18,15.31,6.66,20.58.66,1,3.72,4.19,3.85,4.69.16.6-1.87,3.13-2.54,3.19-1.14.1-3.13-2.7-3.84-3.65-9.46-12.63-10.18-31.52-6.71-46.44.92-3.96,3.7-7.62,4.99-11.52Z"/>
        <path class="cls-1" d="M98.4,23.16l-2.61,4.1-48.13-1.04,2.58-4.71c.67.14,1.29.3,2,.3,12.08.01,25.21-.7,37.15-.03,1.07.06,8.73,1.01,9.01,1.38Z"/>
        <path class="cls-1" d="M27.91,63c.99.85-1.12,9.05-1.32,10.77-.19,1.65-.36,4.39-.4,6.07-.26,12.13,4.38,23.59,12.61,32.38l-2.93,3.19c-1.6.27-6.92-8.54-7.79-10.17-5.01-9.34-7.7-20.43-5.78-31,.32-1.77,1.44-7.04,2.15-8.41.34-.66,2.8-3.4,3.47-2.83Z"/>
        <path class="cls-1" d="M53.1,94.64l-3.27,3.06c-2.25.39-7.78-13.04-8.46-15.3-2.28-7.47-3.22-18.69-1.44-26.29.29-1.26.8-3.65,2.49-2.34,1.44,1.12.7,10.23.81,12.47.28,5.67,1.51,12.3,3.51,17.61,1.42,3.78,3.4,7.54,6.38,10.31v.48Z"/>
        <path class="cls-1" d="M89.89,32.69c-1.11,1.11-2.07,4.32-3.57,4.46-.89.08-1.8-.36-2.72-.39-10.17-.33-20.41.27-30.59.02l-2.63-4.26,15.85-.53,23.65.7Z"/>
        <path class="cls-1" d="M135.42.05c1.09-.3,2.15.88,2.48,1.82-4.85,7.83-10.48,15.4-16.22,22.6-.27.07-.46-.12-.69-.2-.68-.26-2.67-1.51-1.9-2.36,2.55-2.66,14.29-21.29,16.33-21.85Z"/>
      </g>
      <path class="cls-1" d="M23.27,37.68c-2.89-2.9,1.9-7.52,4.46-4.29,1.96,2.47-1.59,7.16-4.46,4.29Z"/>
    </g>
  </g>
</svg>
